<svg width="292" height="350" viewBox="0 0 292 350" fill="none" xmlns="http://www.w3.org/2000/svg">
<rect width="292" height="350" fill="#F4F4F4"/>
<path d="M211.992 109H79.9922C70.8924 109 63.4922 116.4 63.4922 125.5V224.5C63.4922 233.6 70.8924 241 79.9922 241H211.992C221.092 241 228.492 233.6 228.492 224.5V125.5C228.492 116.4 221.092 109 211.992 109ZM100.617 133.75C103.899 133.75 107.047 135.054 109.368 137.375C111.688 139.695 112.992 142.843 112.992 146.125C112.992 149.407 111.688 152.555 109.368 154.875C107.047 157.196 103.899 158.5 100.617 158.5C97.3351 158.5 94.1875 157.196 91.8667 154.875C89.546 152.555 88.2422 149.407 88.2422 146.125C88.2422 142.843 89.546 139.695 91.8667 137.375C94.1875 135.054 97.3351 133.75 100.617 133.75ZM145.992 216.25H88.2422L121.242 175L133.617 191.5L158.367 158.5L203.742 216.25H145.992Z" fill="#EAEAEA"/>
</svg>
