<svg width="34" height="35" viewBox="0 0 34 35" fill="none" xmlns="http://www.w3.org/2000/svg">
<path d="M28.3327 17.5V31.6667H5.66602V17.5" stroke="#262626" stroke-width="1.5" stroke-linecap="round" stroke-linejoin="round"/>
<path d="M31.1673 10.4167H2.83398V17.5001H31.1673V10.4167Z" stroke="#262626" stroke-width="1.5" stroke-linecap="round" stroke-linejoin="round"/>
<path d="M17 31.6667V10.4167" stroke="#262626" stroke-width="1.5" stroke-linecap="round" stroke-linejoin="round"/>
<path d="M17.0007 10.4166H10.6257C9.68634 10.4166 8.78551 10.0434 8.12131 9.37926C7.45712 8.71506 7.08398 7.81423 7.08398 6.87492C7.08398 5.93561 7.45712 5.03477 8.12131 4.37058C8.78551 3.70639 9.68634 3.33325 10.6257 3.33325C15.584 3.33325 17.0007 10.4166 17.0007 10.4166Z" stroke="#262626" stroke-width="1.5" stroke-linecap="round" stroke-linejoin="round"/>
<path d="M17 10.4166H23.375C24.3143 10.4166 25.2151 10.0434 25.8793 9.37926C26.5435 8.71506 26.9167 7.81423 26.9167 6.87492C26.9167 5.93561 26.5435 5.03477 25.8793 4.37058C25.2151 3.70639 24.3143 3.33325 23.375 3.33325C18.4167 3.33325 17 10.4166 17 10.4166Z" stroke="#262626" stroke-width="1.5" stroke-linecap="round" stroke-linejoin="round"/>
</svg>
