<svg width="38" height="38" viewBox="0 0 38 38" fill="none" xmlns="http://www.w3.org/2000/svg">
<path d="M9.49999 11.0833H17.4167C17.8366 11.0833 18.2393 11.2501 18.5362 11.5471C18.8332 11.844 19 12.2467 19 12.6667C19 13.0866 18.8332 13.4893 18.5362 13.7862C18.2393 14.0832 17.8366 14.25 17.4167 14.25H9.49999C9.08007 14.25 8.67734 14.0832 8.38041 13.7862C8.08348 13.4893 7.91666 13.0866 7.91666 12.6667C7.91666 12.2467 8.08348 11.844 8.38041 11.5471C8.67734 11.2501 9.08007 11.0833 9.49999 11.0833ZM20.5833 23.75H28.5C28.9199 23.75 29.3226 23.9168 29.6196 24.2137C29.9165 24.5107 30.0833 24.9134 30.0833 25.3333C30.0833 25.7533 29.9165 26.156 29.6196 26.4529C29.3226 26.7498 28.9199 26.9167 28.5 26.9167H20.5833C20.1634 26.9167 19.7607 26.7498 19.4637 26.4529C19.1668 26.156 19 25.7533 19 25.3333C19 24.9134 19.1668 24.5107 19.4637 24.2137C19.7607 23.9168 20.1634 23.75 20.5833 23.75ZM9.49999 17.4167H28.5C28.9199 17.4167 29.3226 17.5835 29.6196 17.8804C29.9165 18.1773 30.0833 18.5801 30.0833 19C30.0833 19.4199 29.9165 19.8226 29.6196 20.1196C29.3226 20.4165 28.9199 20.5833 28.5 20.5833H9.49999C9.08007 20.5833 8.67734 20.4165 8.38041 20.1196C8.08348 19.8226 7.91666 19.4199 7.91666 19C7.91666 18.5801 8.08348 18.1773 8.38041 17.8804C8.67734 17.5835 9.08007 17.4167 9.49999 17.4167Z" fill="#1E1E1E"/>
</svg>
