<svg width="96" height="28" viewBox="0 0 96 28" fill="none" xmlns="http://www.w3.org/2000/svg">
<path d="M70.2211 27.9791C67.9848 27.9791 65.9517 27.9998 63.9187 27.9584C63.6341 27.9584 63.2478 27.6071 63.0648 27.3178C61.967 25.4374 60.8488 23.557 59.8526 21.6145C58.9377 19.8374 57.6569 18.7835 55.6646 18.6595C53.2859 18.5149 50.9072 18.4116 48.4879 18.8249C49.5045 21.8832 50.5006 24.8588 51.5172 27.9378C49.1792 27.9378 46.9632 27.9378 44.6252 27.9378C43.8323 25.4167 42.9987 22.8544 42.1855 20.23C38.1194 21.6559 34.7853 23.9496 32.2033 27.3178C31.7967 27.8551 31.3698 28.0204 30.7192 28.0204C28.7878 27.9791 26.8768 27.9998 24.8031 27.9998C25.3316 26.3673 25.7992 24.8588 26.3075 23.371C28.8081 15.9319 31.3088 8.51342 33.7687 1.09497C34.0534 0.268398 34.4193 -0.0209013 35.2935 0.0204271C37.3469 0.103084 39.4206 0.0204271 41.474 0.0617555C41.7789 0.0617555 42.2668 0.309726 42.3482 0.557696C43.5883 4.15327 44.7878 7.79017 45.9873 11.4064C46.0076 11.4891 46.0076 11.5924 46.0076 11.5717C44.0356 12.0677 42.0839 12.5429 39.9492 13.0802C39.4409 11.4477 38.8513 9.60862 38.1601 7.45954C37.0419 10.9931 36.0051 14.2787 34.9072 17.7503C35.9238 17.213 36.7776 16.7584 37.6315 16.3038C41.047 14.5267 44.7675 13.5968 48.5286 13.2662C52.1677 12.9562 55.8475 13.1009 59.507 13.2455C62.1906 13.3488 63.7764 10.7038 62.8615 8.20345C62.3532 6.81895 61.2554 6.07504 59.7713 6.03371C57.7789 5.97172 55.7865 5.95105 53.7738 5.8684C53.4282 5.84773 52.9606 5.70308 52.7776 5.43445C51.5375 3.73998 50.338 1.98353 49.0165 0.103084C49.4638 0.0824197 49.7687 0.0410913 50.0534 0.0410913C53.3672 0.0410913 56.6607 0.0410913 59.9746 0.0410913C64.2033 0.0617555 67.9238 2.87209 69.0623 6.94294C70.2211 11.0758 68.6557 15.0226 64.9352 17.4197C64.7726 17.523 64.6302 17.647 64.4066 17.7916C66.3177 21.1392 68.2084 24.4662 70.2211 27.9791Z" fill="white"/>
<path d="M0 27.876V0.123985C0 0.0619926 0.0609911 0 0.121982 0H5.44854C5.4892 0 5.52986 0.0206642 5.55019 0.0413284L16.5896 15.0849C16.7522 15.2708 16.9555 15.5395 17.1995 15.8701C17.4435 16.2007 17.6671 16.552 17.8907 16.862C18.0737 17.1513 18.216 17.3786 18.2973 17.5646C18.3177 17.6059 18.3583 17.6266 18.399 17.6266C18.46 17.6266 18.521 17.5646 18.521 17.5026V16.2627C18.521 15.8081 18.521 15.4155 18.521 15.0642V0.123985C18.5006 0.0619926 18.5616 0 18.6226 0H24.0305C24.0915 0 24.1525 0.0619926 24.1525 0.123985V27.876C24.1525 27.938 24.0915 28 24.0305 28H18.7243C18.6836 28 18.6429 27.9793 18.6226 27.9587L7.33926 12.5225C7.07497 12.1506 6.79034 11.7166 6.50572 11.262C6.24142 10.828 6.03812 10.4974 5.89581 10.2701C5.87548 10.2288 5.83482 10.2081 5.79415 10.2081C5.73316 10.2081 5.67217 10.2701 5.67217 10.3321V11.4066C5.67217 11.7993 5.67217 12.1712 5.67217 12.5225V27.8554C5.67217 27.9173 5.61118 27.9793 5.55019 27.9793H0.121982C0.0609911 28 0 27.938 0 27.876Z" fill="white"/>
<path d="M70.709 28V0H76.6861V12.7292L88.4168 0H95.7967L85.2859 11.386L96 28H88.8437L81.1385 15.6015L76.6861 19.6723V28H70.709Z" fill="white"/>
</svg>
