<svg width="64" height="64" viewBox="0 0 64 64" fill="none" xmlns="http://www.w3.org/2000/svg">
<g clip-path="url(#clip0_87_3573)">
<path d="M64 20.8L17.1787 40.736C13.296 42.3804 10.0356 43.2027 7.39733 43.2027C4.41067 43.2027 2.24444 42.1564 0.898666 40.064C0.0542216 38.72 -0.194667 37.0151 0.151999 34.9493C0.500444 32.8835 1.42133 30.6809 2.91467 28.3413C4.15911 26.448 6.20089 23.9591 9.04 20.8747C8.07575 22.3906 7.3693 24.0558 6.94933 25.8027C6.20267 28.9884 6.87467 31.328 8.96533 32.8213C9.96089 33.5182 11.3298 33.8667 13.072 33.8667C14.464 33.8667 16.032 33.6427 17.776 33.1947L64 20.8Z" fill="black"/>
</g>
<defs>
<clipPath id="clip0_87_3573">
<rect width="64" height="64" fill="white"/>
</clipPath>
</defs>
</svg>
