<svg width="34" height="35" viewBox="0 0 34 35" fill="none" xmlns="http://www.w3.org/2000/svg">
<path d="M22.666 4.75H1.41602V23.1667H22.666V4.75Z" stroke="#262626" stroke-width="1.5" stroke-linecap="round" stroke-linejoin="round"/>
<path d="M22.666 11.8333H28.3327L32.5827 16.0833V23.1666H22.666V11.8333Z" stroke="#262626" stroke-width="1.5" stroke-linecap="round" stroke-linejoin="round"/>
<path d="M7.79167 30.2501C9.74767 30.2501 11.3333 28.6644 11.3333 26.7084C11.3333 24.7524 9.74767 23.1667 7.79167 23.1667C5.83566 23.1667 4.25 24.7524 4.25 26.7084C4.25 28.6644 5.83566 30.2501 7.79167 30.2501Z" stroke="#262626" stroke-width="1.5" stroke-linecap="round" stroke-linejoin="round"/>
<path d="M26.2077 30.2501C28.1637 30.2501 29.7493 28.6644 29.7493 26.7084C29.7493 24.7524 28.1637 23.1667 26.2077 23.1667C24.2517 23.1667 22.666 24.7524 22.666 26.7084C22.666 28.6644 24.2517 30.2501 26.2077 30.2501Z" stroke="#262626" stroke-width="1.5" stroke-linecap="round" stroke-linejoin="round"/>
</svg>
